<?xml version="1.0" encoding="UTF-8" standalone="no"?>
<!-- Created with Inkscape (http://www.inkscape.org/) -->

<svg
   xmlns:dc="http://purl.org/dc/elements/1.1/"
   xmlns:cc="http://creativecommons.org/ns#"
   xmlns:rdf="http://www.w3.org/1999/02/22-rdf-syntax-ns#"
   xmlns:svg="http://www.w3.org/2000/svg"
   xmlns="http://www.w3.org/2000/svg"
   xmlns:xlink="http://www.w3.org/1999/xlink"
   xmlns:sodipodi="http://sodipodi.sourceforge.net/DTD/sodipodi-0.dtd"
   xmlns:inkscape="http://www.inkscape.org/namespaces/inkscape"
   width="47.229694mm"
   height="60.090488mm"
   viewBox="0 0 167.34931 212.91906"
   id="svg2"
   version="1.1"
   inkscape:version="0.91 r13725"
   sodipodi:docname="soar_logo.svg">
  <defs
     id="defs4">
    <linearGradient
       inkscape:collect="always"
       id="linearGradient4734">
      <stop
         style="stop-color:#00a5bb;stop-opacity:1"
         offset="0"
         id="stop4736" />
      <stop
         style="stop-color:#1b5559;stop-opacity:1"
         offset="1"
         id="stop4738" />
    </linearGradient>
    <linearGradient
       id="linearGradient4659"
       inkscape:collect="always">
      <stop
         id="stop4661"
         offset="0"
         style="stop-color:#00a5bb;stop-opacity:1" />
      <stop
         id="stop4663"
         offset="1"
         style="stop-color:#08474b;stop-opacity:1" />
    </linearGradient>
    <linearGradient
       inkscape:collect="always"
       id="linearGradient4547">
      <stop
         style="stop-color:#00a5bb;stop-opacity:1"
         offset="0"
         id="stop4549" />
      <stop
         style="stop-color:#1b5559;stop-opacity:1"
         offset="1"
         id="stop4551" />
    </linearGradient>
    <radialGradient
       inkscape:collect="always"
       xlink:href="#linearGradient4547"
       id="radialGradient4553"
       cx="204.6832"
       cy="407.83298"
       fx="204.6832"
       fy="407.83298"
       r="65.958122"
       gradientTransform="matrix(1,0,0,0.95335141,0,16.463642)"
       gradientUnits="userSpaceOnUse" />
    <radialGradient
       inkscape:collect="always"
       xlink:href="#linearGradient4659"
       id="radialGradient4573"
       cx="205"
       cy="408.70505"
       fx="205"
       fy="408.70505"
       r="25.182201"
       gradientTransform="matrix(2.6095529,1.7326923e-7,-1.6479402e-7,2.4819105,-329.95828,-609.5072)"
       gradientUnits="userSpaceOnUse" />
    <radialGradient
       inkscape:collect="always"
       xlink:href="#linearGradient4659"
       id="radialGradient4667"
       gradientUnits="userSpaceOnUse"
       gradientTransform="matrix(-2.6095529,1.7326923e-7,1.6479402e-7,2.4819105,739.73674,-609.5072)"
       cx="205"
       cy="408.70505"
       fx="205"
       fy="408.70505"
       r="25.182201" />
    <radialGradient
       inkscape:collect="always"
       xlink:href="#linearGradient4734"
       id="radialGradient4740"
       cx="371.78571"
       cy="-645.39606"
       fx="371.78571"
       fy="-645.39606"
       r="48.253052"
       gradientTransform="matrix(1.3618681,-4.5225087e-7,4.3012992e-7,1.2952551,-300.11544,1280.815)"
       gradientUnits="userSpaceOnUse" />
    <filter
       inkscape:collect="always"
       style="color-interpolation-filters:sRGB"
       id="filter4990"
       x="-0.011712153"
       width="1.0234243"
       y="-0.012302353"
       height="1.0246047">
      <feGaussianBlur
         inkscape:collect="always"
         stdDeviation="0.06879413"
         id="feGaussianBlur4992" />
    </filter>
  </defs>
  <sodipodi:namedview
     id="base"
     pagecolor="#ffffff"
     bordercolor="#666666"
     borderopacity="1.0"
     inkscape:pageopacity="0.0"
     inkscape:pageshadow="2"
     inkscape:zoom="0.98994949"
     inkscape:cx="25.082027"
     inkscape:cy="90.37107"
     inkscape:document-units="px"
     inkscape:current-layer="g4750"
     showgrid="false"
     showguides="true"
     inkscape:guide-bbox="true"
     fit-margin-top="5"
     fit-margin-left="5"
     fit-margin-right="5"
     fit-margin-bottom="5"
     inkscape:window-width="1280"
     inkscape:window-height="751"
     inkscape:window-x="0"
     inkscape:window-y="1"
     inkscape:window-maximized="1">
    <inkscape:grid
       type="xygrid"
       id="grid4555"
       originx="-22.658302"
       originy="-569.05492" />
  </sodipodi:namedview>
  <metadata
     id="metadata7">
    <rdf:RDF>
      <cc:Work
         rdf:about="">
        <dc:format>image/svg+xml</dc:format>
        <dc:type
           rdf:resource="http://purl.org/dc/dcmitype/StillImage" />
        <dc:title></dc:title>
      </cc:Work>
    </rdf:RDF>
  </metadata>
  <g
     inkscape:label="Layer 1"
     inkscape:groupmode="layer"
     id="layer1"
     transform="translate(-22.658301,-270.38828)">
    <g
       id="g4750"
       transform="translate(-265.71429,-94.285713)">
      <g
         id="g5008">
        <g
           id="g4383"
           transform="translate(121.30797,16.428571)">
          <path
             id="path4346"
             d="m 276.25586,522.54883 c -0.86464,0.039 -1.74163,0.2463 -2.58594,0.63867 -2.30882,1.07298 -3.65625,3.28309 -3.65625,5.99805 0,1.46244 0.28936,2.43598 1.07031,3.60547 1.59482,2.38826 4.67116,3.43789 7.51172,2.56054 1.96722,-0.60762 3.58495,-2.24888 4.19336,-4.25195 0.45775,-1.50704 0.34485,-3.44721 -0.27929,-4.77344 -1.17354,-2.49359 -3.65998,-3.89441 -6.25391,-3.77734 z m 0.49023,0.68164 c 1.28778,0.12373 2.17963,1.09659 2.6836,2.92969 0.33753,1.2276 0.32831,4.72785 -0.0156,6.03711 -0.27547,1.0486 -0.8289,1.96603 -1.48047,2.44921 -0.51434,0.38141 -1.81819,0.48606 -2.45507,0.19727 -0.61797,-0.28022 -1.3617,-1.20664 -1.63672,-2.04102 -0.38276,-1.16131 -0.56668,-2.98952 -0.46485,-4.61718 0.21458,-3.42987 1.3817,-5.14605 3.36914,-4.95508 z"
             style="fill:#00a5bb;fill-opacity:1"
             inkscape:connector-curvature="0" />
          <path
             id="path4360"
             d="m 192.16427,541.72294 0,-1.725 58.575,0 58.575,0 0,1.725 0,1.725 -58.575,0 -58.575,0 0,-1.725 z"
             style="fill:#02757d;fill-opacity:1"
             inkscape:connector-curvature="0" />
          <path
             id="path4356"
             d="m 244.96427,533.47294 0,-2.475 0.34548,0 c 0.29608,0 0.39465,0.15271 0.68949,1.06815 0.62511,1.94091 2.2287,3.16992 3.80679,2.91757 0.31865,-0.0509 0.73754,-0.19629 0.93088,-0.32296 0.42858,-0.28083 0.82756,-1.08207 0.8268,-1.66043 -10e-4,-0.86164 -0.45052,-1.2823 -2.54512,-2.3824 -3.19176,-1.67636 -3.96304,-2.55209 -3.95885,-4.49493 0.003,-1.26425 0.25699,-1.91315 1.11391,-2.8428 0.48046,-0.52124 0.83149,-0.74384 1.46203,-0.92715 1.01504,-0.29508 2.57164,-0.22134 3.83752,0.18177 l 0.88393,0.28147 0.22187,-0.33414 c 0.12592,-0.18966 0.37611,-0.33415 0.57857,-0.33415 l 0.3567,0 0,2.175 c 0,2.17392 -1.5e-4,2.175 -0.3474,2.175 -0.27917,0 -0.41381,-0.16023 -0.68556,-0.81588 -0.40888,-0.98649 -1.39948,-2.15031 -2.06804,-2.42966 -1.62286,-0.67807 -3.26615,0.31598 -2.98652,1.80657 0.13598,0.72483 0.75414,1.21001 3.05288,2.39609 1.17614,0.60687 2.21573,1.25926 2.56809,1.61163 1.88288,1.88287 1.15268,5.32716 -1.3653,6.43998 -1.09323,0.48315 -3.3685,0.48979 -4.67818,0.0136 -0.90762,-0.32997 -1.28997,-0.26448 -1.28997,0.22095 0,0.12042 -0.15648,0.20664 -0.375,0.20664 l -0.375,0 0,-2.475 z"
             style="fill:#00a5bb;fill-opacity:1"
             inkscape:connector-curvature="0" />
          <path
             id="path4354"
             d="m 245.9844,534.9245 c 0.18569,-0.0266 0.7915,0.10523 1.34624,0.29306 2.77209,0.93858 5.46642,-0.0877 6.24736,-2.37966 0.29729,-0.87249 0.29709,-1.30802 -0.001,-2.18286 -0.36296,-1.06524 -1.17051,-1.74566 -3.52113,-2.96676 -2.53534,-1.31711 -2.99155,-1.75218 -2.99155,-2.85302 0,-0.91539 0.30854,-1.55647 0.89509,-1.85979 0.54825,-0.28351 2.09655,-0.29787 2.74723,-0.0255 0.67282,0.28167 1.56753,1.3221 2.06978,2.40689 l 0.42413,0.91605 0.004,-1.95 c 0.003,-1.9164 -0.001,-1.94388 -0.26983,-1.59453 -0.31177,0.40542 -0.57436,0.39876 -2.65848,-0.0675 -1.06262,-0.23772 -1.32155,-0.24729 -2.08233,-0.077 -2.14942,0.48102 -3.45836,3.04462 -2.50684,4.90974 0.47122,0.92367 1.42401,1.66455 3.63201,2.82423 2.28808,1.20172 2.54481,1.48225 2.54414,2.78007 -7.5e-4,1.38169 -0.65558,2.07972 -2.07033,2.20675 -1.32043,0.11856 -2.07695,-0.15415 -2.96995,-1.07067 -0.59773,-0.61347 -0.85146,-1.03222 -1.15065,-1.89904 l -0.38384,-1.11204 -0.01,2.25 c -0.008,1.90395 0.0194,2.19232 0.17941,1.875 0.10398,-0.20625 0.34097,-0.3968 0.52666,-0.42344 z"
             style="fill:#00a5bb;fill-opacity:1"
             inkscape:connector-curvature="0" />
          <path
             id="path4352"
             d="m 260.21265,535.658 c -2.1247,-0.694 -3.6815,-2.32051 -4.24497,-4.43506 -0.25906,-0.97221 -0.25603,-3.089 0.006,-4.07247 0.4913,-1.8452 1.84965,-3.44357 3.65198,-4.29731 0.96671,-0.45792 1.09737,-0.48012 2.81378,-0.4779 1.49216,0.002 1.95303,0.0597 2.6948,0.3375 1.17307,0.43941 1.54296,0.43103 1.7575,-0.0398 0.11138,-0.24446 0.29303,-0.375 0.52178,-0.375 l 0.35092,0 0,2.325 c 0,2.31121 -0.002,2.325 -0.3375,2.32464 -0.25664,0 -0.44066,-0.19778 -0.76809,-0.82443 -1.21762,-2.33033 -3.327,-3.45879 -5.08907,-2.72256 -1.3878,0.57987 -2.20561,2.73336 -2.2016,5.79735 0.005,3.87636 1.73231,6.04572 4.40934,5.53804 1.001,-0.18984 1.77725,-0.60667 2.83674,-1.52325 l 0.87482,-0.75682 0.30274,0.30274 c 0.24319,0.24318 0.27085,0.36233 0.1406,0.60569 -0.29296,0.54741 -1.57503,1.5669 -2.56798,2.04204 -0.88516,0.42357 -1.12702,0.46984 -2.625,0.50226 -1.2903,0.0279 -1.84109,-0.0267 -2.52661,-0.25064 z"
             style="fill:#00a5bb;fill-opacity:1"
             inkscape:connector-curvature="0" />
          <path
             id="path4350"
             d="m 265.06686,535.10131 c 0.9143,-0.43025 2.64809,-1.80269 2.48426,-1.96652 -0.0412,-0.0412 -0.39858,0.1962 -0.79427,0.52749 -1.38124,1.15646 -2.82403,1.63658 -4.35245,1.44839 -2.21067,-0.27219 -3.33117,-2.29059 -3.33753,-6.01203 -0.004,-2.48468 0.4837,-4.46802 1.31786,-5.35668 0.58675,-0.6251 1.22704,-0.8442 2.46222,-0.84261 0.93315,10e-4 1.20448,0.0657 1.86203,0.44287 0.90087,0.51669 1.63164,1.32453 2.28129,2.52185 l 0.466,0.85887 -0.002,-2.1 c -0.002,-1.94231 -0.0187,-2.06916 -0.2248,-1.68941 -0.33413,0.6158 -0.79735,0.65316 -2.12384,0.17127 -0.98351,-0.35728 -1.40151,-0.42429 -2.66636,-0.42741 -1.38013,-0.003 -1.58102,0.0346 -2.51378,0.47615 -4.03303,1.9089 -5.15566,7.11036 -2.24343,10.3944 1.26221,1.42336 3.0178,2.12566 5.1348,2.05411 1.0558,-0.0357 1.44642,-0.12261 2.25,-0.50074 z"
             style="fill:#00a5bb;fill-opacity:1"
             inkscape:connector-curvature="0" />
          <path
             id="path4340"
             d="m 195.31427,535.27294 c 0,-0.29366 0.0765,-0.375 0.35262,-0.375 0.78239,0 1.28457,-0.30482 1.44323,-0.87602 0.0894,-0.32193 0.15282,-2.64987 0.15331,-5.62851 l 9e-4,-5.07954 -0.7125,0.10449 c -1.16019,0.17015 -1.85343,0.63797 -2.325,1.56897 -0.22687,0.44792 -0.4125,0.97104 -0.4125,1.1625 0,0.29049 -0.0782,0.34811 -0.47262,0.34811 l -0.47262,0 0.0968,-1.4625 c 0.0533,-0.80438 0.0972,-1.71563 0.0976,-2.025 l 7.1e-4,-0.5625 5.85,0 5.85,0 0,2.025 0,2.025 -0.45,0 c -0.36623,0 -0.45027,-0.0628 -0.45147,-0.3375 -0.002,-0.56049 -0.68473,-1.84664 -1.15866,-2.18411 -0.39509,-0.28132 -1.43675,-0.61464 -1.95237,-0.62473 -0.14663,-0.003 -0.1875,1.18473 -0.1875,5.44809 0,6.15702 -0.0525,5.88927 1.18836,6.05571 0.52026,0.0698 0.61164,0.13512 0.61164,0.43729 l 0,0.35525 -3.525,0 -3.525,0 0,-0.375 z"
             style="fill:#00a5bb;fill-opacity:1"
             inkscape:connector-curvature="0" />
          <path
             id="path4338"
             d="m 201.50717,535.20734 c -0.34766,-0.0567 -0.76953,-0.22746 -0.9375,-0.37947 -0.29712,-0.26889 -0.3054,-0.43287 -0.3054,-6.0495 l 0,-5.77313 0.9128,0.0954 c 0.50205,0.0525 1.1524,0.2091 1.44523,0.34806 0.62823,0.29811 1.35991,1.37096 1.49005,2.18481 0.18304,1.14464 0.36063,0.52007 0.31933,-1.12303 l -0.0424,-1.6875 -5.5125,-0.0394 -5.5125,-0.0393 0,0.80484 c 0,0.44266 -0.0434,1.21974 -0.0964,1.72684 -0.0677,0.64755 -0.0454,0.92201 0.075,0.92201 0.0942,0 0.17203,-0.15188 0.17284,-0.3375 8.1e-4,-0.18563 0.16348,-0.68547 0.3615,-1.11077 0.48867,-1.04952 1.34532,-1.56313 2.66905,-1.60027 l 0.94298,-0.0265 0,5.65846 c 0,5.63349 -0.001,5.65994 -0.33068,5.98902 -0.18187,0.18179 -0.62062,0.37766 -0.97499,0.43526 -0.35438,0.0576 0.84067,0.10471 2.65567,0.10471 1.815,0 3.01555,-0.0464 2.6679,-0.10309 z"
             style="fill:#00a5bb;fill-opacity:1"
             inkscape:connector-curvature="0" />
          <path
             id="path4336"
             d="m 205.66427,535.27474 c 0,-0.30385 0.074,-0.37678 0.38245,-0.37678 0.66865,0 1.2452,-0.40242 1.34373,-0.93788 0.0493,-0.26791 0.0692,-2.62326 0.0442,-5.2341 -0.0511,-5.34235 -0.0334,-5.26093 -1.18376,-5.45527 -0.49266,-0.0832 -0.58664,-0.15708 -0.58664,-0.46094 l 0,-0.36181 5.625,0 5.625,0 0,2.025 0,2.025 -0.375,0 c -0.25658,0 -0.37546,-0.0829 -0.37647,-0.2625 -0.002,-0.41853 -0.67549,-1.73274 -1.06618,-2.08152 -0.54248,-0.48431 -1.42688,-0.71243 -2.79977,-0.72216 -0.94802,-0.007 -1.27625,0.0445 -1.3852,0.21618 -0.0785,0.12375 -0.14382,1.25437 -0.14508,2.5125 l -0.002,2.2875 0.45482,0 c 0.63208,0 1.40862,-0.35132 1.70568,-0.77166 0.13733,-0.19434 0.35345,-0.70772 0.48025,-1.14084 0.19631,-0.67059 0.28463,-0.7875 0.59489,-0.7875 l 0.36436,0 0,3.3 0,3.3 -0.35274,0 c -0.30645,0 -0.38678,-0.12579 -0.61223,-0.95865 -0.29953,-1.10655 -0.76553,-1.63332 -1.66003,-1.87655 -1.0275,-0.27937 -0.975,-0.4032 -0.975,2.29949 0,3.06699 -0.0426,2.99796 1.79024,2.90361 2.13828,-0.11009 3.28194,-0.81303 4.22985,-2.59986 0.25889,-0.48801 0.44542,-0.66804 0.69215,-0.66804 0.43325,0 0.43166,0.29664 -0.0133,2.475 l -0.337,1.65 -5.73099,0.0393 -5.73099,0.0393 0,-0.37679 z"
             style="fill:#00a5bb;fill-opacity:1"
             inkscape:connector-curvature="0" />
          <path
             id="path4334"
             d="m 217.16326,533.62296 c 0.18535,-0.9075 0.34015,-1.71287 0.344,-1.7897 0.004,-0.0768 -0.25385,0.29442 -0.57269,0.825 -1.04096,1.73229 -2.31967,2.3897 -4.64821,2.3897 -1.882,0 -1.82209,0.1068 -1.82209,-3.24825 l 0,-2.75175 0.4875,0.004 c 1.41705,0.0104 2.32953,0.59127 2.65686,1.69131 0.3964,1.33212 0.43534,1.17381 0.43534,-1.7699 0,-1.6687 -0.0537,-2.86687 -0.12101,-2.7 -0.0666,0.165 -0.24761,0.63056 -0.40235,1.03457 -0.38449,1.00389 -0.87462,1.33645 -2.08296,1.4134 l -0.97338,0.062 0.002,-2.60498 c 0.001,-1.43274 0.0665,-2.70622 0.14502,-2.82997 0.11216,-0.17682 0.47304,-0.22379 1.68521,-0.21932 2.64681,0.01 3.46669,0.51761 4.10766,2.54432 0.17707,0.55992 0.19042,0.48228 0.19978,-1.1625 l 0.01,-1.7625 -5.2875,0.0135 c -3.64889,0.009 -5.1248,0.0579 -4.7625,0.15682 0.28875,0.0788 0.67688,0.31274 0.8625,0.51984 0.33616,0.37505 0.3375,0.39701 0.3375,5.53611 0,3.51521 -0.054,5.27811 -0.16946,5.53151 -0.16905,0.37102 -0.62055,0.62239 -1.33054,0.74074 -0.20625,0.0344 2.08582,0.0544 5.09349,0.0445 l 5.4685,-0.018 0.337,-1.65 z"
             style="fill:#00a5bb;fill-opacity:1"
             inkscape:connector-curvature="0" />
          <path
             id="path4332"
             d="m 218.71427,535.29213 c 0,-0.29832 0.0956,-0.37112 0.59182,-0.45047 1.06721,-0.17065 1.05818,-0.12093 1.05818,-5.82708 0,-4.81818 -0.0143,-5.08092 -0.29163,-5.35825 -0.1604,-0.1604 -0.53165,-0.33666 -0.825,-0.3917 -0.43438,-0.0815 -0.53337,-0.16656 -0.53337,-0.45837 l 0,-0.3583 3.45,0 3.45,0 0,0.35797 c 0,0.30762 -0.0921,0.37178 -0.65475,0.45615 -1.29294,0.19389 -1.21468,-0.1603 -1.26342,5.71808 -0.0519,6.2551 -0.18148,5.83465 1.76817,5.73568 2.10072,-0.10666 3.12575,-0.80047 4.09929,-2.77471 0.36824,-0.74675 0.53649,-0.94317 0.8079,-0.94317 0.22908,0 0.34281,0.0889 0.34281,0.26781 0,0.24388 -0.50463,3.23827 -0.68164,4.04469 l -0.0741,0.3375 -5.62214,0 -5.62214,0 0,-0.35583 z"
             style="fill:#00a5bb;fill-opacity:1"
             inkscape:connector-curvature="0" />
          <path
             id="path4330"
             d="m 229.80363,534.52296 c 0.0883,-0.45375 0.2308,-1.21313 0.31654,-1.6875 0.0858,-0.47438 0.18818,-1.03125 0.22762,-1.2375 0.0394,-0.20625 -0.19526,0.12241 -0.52154,0.73036 -0.72873,1.3578 -1.07613,1.7397 -2.03698,2.23929 -0.63408,0.32969 -0.99349,0.39932 -2.32538,0.45048 -2.30611,0.0886 -2.11951,0.63174 -2.06752,-6.01807 0.0309,-3.95709 0.0921,-5.53656 0.2194,-5.66372 0.0971,-0.097 0.53583,-0.26331 0.975,-0.36958 0.72982,-0.17663 0.52112,-0.19349 -2.4265,-0.19598 -2.98059,-0.003 -3.17399,0.0132 -2.55187,0.20694 0.37023,0.11532 0.75835,0.32621 0.8625,0.46865 0.14412,0.19708 0.18937,1.53853 0.18937,5.61367 0,6.02619 0.0309,5.85813 -1.125,6.12125 -0.40241,0.0916 1.16244,0.14154 4.75186,0.15163 l 5.35187,0.0151 0.16063,-0.825 z"
             style="fill:#00a5bb;fill-opacity:1"
             inkscape:connector-curvature="0" />
          <path
             id="path4328"
             d="m 231.61427,535.29213 c 0,-0.29832 0.0956,-0.37112 0.59182,-0.45047 1.06721,-0.17065 1.05818,-0.12093 1.05818,-5.82708 0,-4.81818 -0.0143,-5.08092 -0.29163,-5.35825 -0.1604,-0.1604 -0.53165,-0.33666 -0.825,-0.3917 -0.43438,-0.0815 -0.53337,-0.16656 -0.53337,-0.45837 l 0,-0.3583 5.625,0 5.625,0 0,2.03496 0,2.03496 -0.3969,-0.0475 c -0.31799,-0.038 -0.43225,-0.16674 -0.57479,-0.64746 -0.44179,-1.49009 -0.8964,-1.93917 -2.29658,-2.26869 -1.29893,-0.30569 -2.36905,-0.269 -2.73173,0.0937 -0.27333,0.27333 -0.3,0.49999 -0.3,2.55 l 0,2.25 0.45482,0 c 1.13608,0 1.94632,-0.70422 2.2456,-1.95174 0.15353,-0.63999 0.2316,-0.74826 0.53954,-0.74826 l 0.36004,0 0,3.3 0,3.3 -0.35583,0 c -0.30047,0 -0.3711,-0.0955 -0.45397,-0.61377 -0.22657,-1.41689 -0.88669,-2.12019 -2.18482,-2.32778 l -0.62611,-0.10011 0.0479,2.50823 c 0.0565,2.95993 0.0418,2.93343 1.62431,2.93343 2.02621,0 3.41366,-0.79535 4.38268,-2.51235 0.34346,-0.60858 0.52652,-0.78765 0.8052,-0.78765 0.19837,0 0.36073,0.0506 0.36079,0.1125 6e-5,0.0619 -0.17829,1.00687 -0.39634,2.1 l -0.39645,1.9875 -5.67866,0 -5.67866,0 0,-0.35583 z"
             style="fill:#00a5bb;fill-opacity:1"
             inkscape:connector-curvature="0" />
          <path
             id="path4326"
             d="m 242.99335,533.73546 c 0.4068,-2.04254 0.40474,-2.06354 -0.11385,-1.15944 -0.6192,1.07949 -1.62796,1.95471 -2.57821,2.2369 -0.45724,0.13578 -1.35007,0.23504 -2.11424,0.23504 -1.96396,0 -1.92278,0.0711 -1.92278,-3.32084 l 0,-2.72083 0.87568,0.0794 c 1.53122,0.13884 2.06539,0.60961 2.51016,2.21226 0.16639,0.59953 0.18793,0.3396 0.19268,-2.325 l 0.005,-3 -0.27935,0.87427 c -0.44936,1.40642 -1.11245,1.90073 -2.54969,1.90073 l -0.75482,0 0,-2.55 c 0,-3.29454 -0.0484,-3.22619 2.20435,-3.1112 2.43139,0.12408 3.0657,0.56948 3.89671,2.7362 0.14447,0.37666 0.16863,0.16888 0.14827,-1.275 l -0.0243,-1.725 -5.325,-0.0285 c -4.76563,-0.0255 -5.25429,-0.006 -4.65187,0.18219 0.37023,0.11588 0.75835,0.32723 0.8625,0.46967 0.14412,0.19708 0.18937,1.53853 0.18937,5.61367 0,6.02619 0.0309,5.85813 -1.125,6.12125 -0.40192,0.0915 1.18815,0.14155 4.81647,0.15163 l 5.41646,0.0151 0.32115,-1.6125 z"
             style="fill:#00a5bb;fill-opacity:1"
             inkscape:connector-curvature="0" />
          <path
             style="fill:#00a5bb;fill-opacity:1"
             d="m 240.28906,539.18945 c -2.93172,0.007 -3.10725,0.0223 -2.54883,0.22461 0.33,0.11955 0.68398,0.33084 0.78711,0.46875 0.14182,0.18966 0.1875,1.55544 0.1875,5.60547 0,5.97543 0.0256,5.8218 -1.05078,6.11719 -0.38034,0.10439 0.32307,0.14369 2.55078,0.14258 2.21459,-0.001 2.90913,-0.0406 2.48243,-0.14063 -1.11352,-0.2609 -1.13282,-0.31479 -1.13282,-3.13672 l 0,-2.50781 1.6875,-0.0664 c 1.89952,-0.0756 2.80696,-0.37525 3.69336,-1.21679 0.66054,-0.62714 0.91992,-1.25997 0.91992,-2.25 0,-1.74185 -1.13591,-2.78488 -3.375,-3.09961 -0.5775,-0.0812 -2.46867,-0.14481 -4.20117,-0.14063 z m 2.57227,0.36914 c 1.53699,0.0152 2.21005,1.07373 2.09961,3.30274 -0.0989,1.99602 -0.62799,2.58397 -2.45313,2.73047 l -0.94336,0.0762 0,-2.85156 c 0,-3.29363 -0.0111,-3.27075 1.29688,-3.25782 z"
             id="path4322"
             transform="translate(47.5,-16.428571)"
             inkscape:connector-curvature="0" />
          <path
             id="path4316"
             d="m 296.26427,535.29213 c 0,-0.29832 0.0956,-0.37112 0.59182,-0.45047 1.06721,-0.17065 1.05818,-0.12093 1.05818,-5.82708 0,-4.81818 -0.0143,-5.08092 -0.29163,-5.35825 -0.1604,-0.1604 -0.53165,-0.33666 -0.825,-0.3917 -0.43438,-0.0815 -0.53337,-0.16656 -0.53337,-0.45837 l 0,-0.3583 5.625,0 5.625,0 0,2.03496 0,2.03496 -0.3969,-0.0475 c -0.32158,-0.0385 -0.43181,-0.16632 -0.58089,-0.67383 -0.25589,-0.87114 -0.77719,-1.66764 -1.25222,-1.9133 -0.49853,-0.25779 -1.96183,-0.53533 -2.82254,-0.53533 -0.44745,0 -0.74012,0.0927 -0.94745,0.3 -0.27333,0.27333 -0.3,0.49999 -0.3,2.55 l 0,2.25 0.45482,0 c 1.13056,0 1.92016,-0.71853 2.26651,-2.0625 0.13543,-0.52553 0.22702,-0.6375 0.52148,-0.6375 l 0.35719,0 0,3.3 0,3.3 -0.35583,0 c -0.30047,0 -0.3711,-0.0955 -0.45397,-0.61377 -0.1393,-0.87113 -0.62385,-1.74459 -1.10417,-1.9904 -0.22607,-0.11569 -0.69791,-0.25803 -1.04853,-0.31629 l -0.6375,-0.10591 0,2.41318 c 0,2.96114 0.028,3.01319 1.62277,3.01319 2.0215,0 3.25876,-0.68979 4.31936,-2.4081 0.42056,-0.68138 0.634,-0.8919 0.90419,-0.8919 0.19452,0 0.35373,0.0506 0.35379,0.1125 6e-5,0.0619 -0.17829,1.00687 -0.39634,2.1 l -0.39645,1.9875 -5.67866,0 -5.67866,0 0,-0.35583 z"
             style="fill:#00a5bb;fill-opacity:1"
             inkscape:connector-curvature="0" />
          <path
             id="path4314"
             d="m 307.64335,533.73546 c 0.17663,-0.88688 0.3211,-1.6736 0.32104,-1.74825 -7e-5,-0.0747 -0.26017,0.26659 -0.57801,0.75835 -1.12502,1.74062 -2.23504,2.3024 -4.54934,2.3024 -1.96395,0 -1.92277,0.0711 -1.92277,-3.32084 l 0,-2.72083 0.87568,0.0794 c 1.53122,0.13884 2.06539,0.60961 2.51016,2.21226 0.16623,0.59895 0.18766,0.33699 0.19023,-2.325 l 0.003,-3 -0.26452,0.77574 c -0.52356,1.53535 -1.11749,1.99926 -2.55962,1.99926 l -0.75482,0 0,-2.55 c 0,-3.29147 -0.046,-3.22605 2.18908,-3.11198 1.93069,0.0985 2.73615,0.43533 3.28635,1.37418 0.20415,0.34836 0.41442,0.84953 0.46725,1.11371 0.2136,1.06797 0.36557,0.57606 0.32484,-1.05146 l -0.0425,-1.69945 -5.325,-0.0285 c -4.76563,-0.0255 -5.25429,-0.006 -4.65187,0.18219 0.37023,0.11588 0.75835,0.32723 0.8625,0.46967 0.14412,0.19708 0.18937,1.53853 0.18937,5.61367 0,6.02619 0.0309,5.85813 -1.125,6.12125 -0.40192,0.0915 1.18815,0.14155 4.81647,0.15163 l 5.41646,0.0151 0.32115,-1.6125 z"
             style="fill:#00a5bb;fill-opacity:1"
             inkscape:connector-curvature="0" />
          <path
             id="path4312"
             d="m 194.62937,517.76046 c 0.0499,-0.59813 0.19029,-2.7075 0.31202,-4.6875 0.12173,-1.98 0.26305,-4.06331 0.31404,-4.62959 l 0.0927,-1.02957 0.76784,0.10187 c 0.42231,0.056 0.78495,0.11896 0.80586,0.13987 0.0209,0.0209 0.16946,0.6768 0.3301,1.45754 0.39747,1.93176 0.78883,2.91199 1.65508,4.14549 2.20324,3.13729 6.34859,4.46365 9.29082,2.97271 1.84209,-0.93346 3.04794,-3.4516 2.70171,-5.64189 -0.0644,-0.40707 -0.33997,-1.1623 -0.61248,-1.67829 -0.6676,-1.26405 -3.25843,-3.84659 -5.67281,-5.65465 -2.18376,-1.63536 -5.39598,-4.80476 -6.12819,-6.0465 -1.11547,-1.8917 -1.29501,-2.54105 -1.29595,-4.68699 -7.5e-4,-1.64969 0.0525,-2.10456 0.3459,-2.95357 0.97708,-2.82784 3.23655,-4.8439 6.10324,-5.44577 2.24757,-0.47189 5.61368,-0.22081 8.02218,0.59838 2.14121,0.72827 3.16395,0.62715 3.82782,-0.37846 0.28096,-0.42559 0.35235,-0.45177 1.125,-0.41251 0.72041,0.0366 0.82201,0.08 0.80141,0.34193 -0.013,0.165 -0.24566,2.44312 -0.51707,5.0625 -0.55067,5.3145 -0.41121,4.90962 -1.60856,4.67015 -0.42283,-0.0846 -0.4757,-0.1635 -0.62778,-0.9375 -0.43814,-2.22969 -1.14651,-3.77993 -2.32737,-5.09333 -1.29105,-1.43595 -2.84901,-2.12682 -4.79613,-2.12682 -1.90497,0 -3.17466,0.69373 -3.93994,2.15267 -0.35683,0.68027 -0.40538,0.94219 -0.40734,2.19733 -0.002,1.22901 0.0521,1.54094 0.39306,2.268 0.58955,1.25735 1.24419,1.88733 4.62456,4.45034 6.2761,4.75858 8.23536,7.30832 8.70705,11.33114 0.34607,2.95152 -0.63755,5.71194 -2.79165,7.83452 -2.9843,2.94063 -8.20032,3.56161 -13.77894,1.64044 -1.07713,-0.37095 -2.18039,-0.67444 -2.45168,-0.67444 -0.59237,0 -1.10573,0.4611 -1.39068,1.24911 -0.19872,0.54954 -0.20137,0.55089 -1.08187,0.55089 l -0.88267,0 0.0907,-1.0875 z"
             style="fill:#00a5bb;fill-opacity:1"
             inkscape:connector-curvature="0" />
          <path
             id="path4308"
             d="m 237.83789,483.77539 c -4.94677,-0.005 -9.37175,2.20018 -12.95703,6.4707 -2.15811,2.5706 -3.85445,5.58793 -4.78906,8.51368 -1.37686,4.3102 -1.17295,9.73209 0.49414,13.09375 1.762,3.55304 5.09759,6.04408 9.05273,6.75976 2.346,0.4245 5.31354,0.24404 7.67578,-0.46484 2.54267,-0.76304 4.68595,-2.05146 6.80469,-4.09375 3.38685,-3.26465 5.68139,-7.19268 6.80078,-11.64063 0.38092,-1.51361 0.41301,-1.86985 0.41211,-4.5664 -0.001,-3.3123 -0.23434,-4.63067 -1.17383,-6.66407 -2.03056,-4.39488 -6.13227,-7.06788 -11.32422,-7.3789 -0.33433,-0.02 -0.6663,-0.029 -0.99609,-0.0293 z m 0.0586,1.99805 c 0.90734,-0.0333 1.77534,0.11757 2.43555,0.45898 1.11402,0.57608 2.34217,2.16707 2.76367,3.58008 1.06037,3.55472 0.15656,11.50984 -2.02929,17.86133 -0.78695,2.28666 -2.19285,5.14675 -3.07813,6.26562 -0.89358,1.12935 -2.23985,2.10881 -3.41211,2.48243 -3.62982,1.15688 -6.15937,-0.32498 -7.24805,-4.24805 -0.33212,-1.19685 -0.4551,-5.10619 -0.2246,-7.14844 0.57301,-5.07717 2.48385,-11.58327 4.32617,-14.73437 0.89246,-1.52648 2.64657,-3.31728 3.79297,-3.8711 0.8191,-0.3957 1.76648,-0.61318 2.67382,-0.64648 z"
             style="fill:#00a5bb;fill-opacity:1"
             inkscape:connector-curvature="0" />
          <path
             id="path4300"
             d="m 265.57812,483.89844 -7.71289,14.4375 c -4.2422,7.94062 -7.94497,14.84289 -8.22851,15.33789 -0.71077,1.24081 -1.71992,2.18589 -2.70313,2.5332 -0.80148,0.28313 -0.80239,0.28319 -0.71289,0.82422 0.0492,0.29789 0.0909,0.62539 0.0918,0.72852 0.001,0.1462 1.09205,0.1875 4.95117,0.1875 l 4.95117,0 0,-0.72266 0,-0.72266 -1.14453,-0.17773 c -1.55638,-0.24197 -1.8859,-0.42422 -2.15039,-1.1875 -0.30249,-0.87288 -0.1333,-1.42399 1.46289,-4.78516 l 1.30664,-2.75195 5.24805,0.0371 5.24805,0.0371 0.63086,2.77344 c 0.35749,1.57647 0.63267,3.18547 0.63867,3.72461 0.009,0.84933 -0.0365,0.9935 -0.41797,1.375 -0.44768,0.44767 -1.07598,0.66899 -2.38477,0.83789 -0.83093,0.10724 -0.83751,0.11602 -0.6914,1 l 0.0918,0.5625 13.78125,0 13.78125,0 0,-0.74024 0,-0.74023 -0.71289,-0.0957 c -2.45891,-0.32517 -2.9413,-0.60116 -3.11914,-1.78711 -0.13019,-0.86817 -0.14401,-0.776 1.08985,-7.47265 l 1.01562,-5.51367 0.6211,0 0.62304,0 1.28711,3.03711 c 0.70819,1.67062 2.25711,5.33367 3.44336,8.13867 l 2.1582,5.09961 5.14063,0.0391 5.14062,0.0391 -0.0937,-0.4707 c -0.0518,-0.25891 -0.0937,-0.58419 -0.0937,-0.72461 0,-0.19636 -0.23025,-0.29834 -0.99609,-0.43945 -1.72445,-0.31774 -2.39246,-0.83991 -3.2832,-2.56836 -0.35514,-0.68915 -5.6211,-12.62267 -5.6211,-12.73828 0,-0.049 0.59062,-0.24209 1.3125,-0.42774 4.58577,-1.17939 7.24038,-4.16342 7.23438,-8.12891 -0.005,-3.35518 -1.83679,-5.81367 -5.20313,-6.98437 -2.26466,-0.78757 -3.19909,-0.85824 -12.45703,-0.93164 l -8.58789,-0.0684 0,0.67187 c 0,0.36904 0.0844,0.73491 0.1875,0.8125 0.10312,0.0776 0.75606,0.21826 1.44922,0.31446 0.69316,0.0962 1.41131,0.27633 1.59766,0.39844 0.50778,0.3327 0.72025,1.16169 0.61328,2.39453 -0.16434,1.89386 -4.28546,24.84555 -4.57813,25.49609 -0.35043,0.77896 -0.83175,1.22128 -1.63281,1.50391 -0.886,0.3126 -1.8495,-0.0146 -2.37109,-0.80274 -0.57078,-0.8625 -0.7891,-1.60054 -3.42383,-11.57812 -1.35898,-5.14642 -3.0842,-11.66919 -3.83203,-14.4961 -0.74784,-2.8269 -1.35938,-5.17289 -1.35938,-5.21289 0,-0.04 -0.35675,-0.0723 -0.79297,-0.0723 l -0.79297,0 z m 28.30079,2.58203 c 0.21584,-0.0114 0.46263,-0.007 0.74218,0.0156 1.36718,0.10936 2.13175,0.45824 2.91211,1.32618 1.04676,1.16426 1.33894,2.0931 1.33594,4.25 -0.002,1.5483 -0.0571,1.95157 -0.38867,2.88476 -0.94635,2.6632 -2.19296,3.83309 -4.59766,4.3125 -0.54665,0.10898 -1.57525,0.24212 -2.28515,0.29492 l -1.28907,0.0957 1.02149,-6.09961 c 0.6323,-3.76955 1.11468,-6.23848 1.26172,-6.46289 0.25656,-0.3916 0.63957,-0.58313 1.28711,-0.61719 z m -31.21289,7.76758 c 0.043,0 0.67675,2.4139 1.41015,5.36328 0.73341,2.94937 1.36495,5.4457 1.40235,5.54883 0.0534,0.1472 -0.85359,0.1875 -4.22266,0.1875 -2.36008,0 -4.29102,-0.0442 -4.29102,-0.0977 0,-0.0535 0.59875,-1.2512 1.33008,-2.66211 0.73134,-1.41092 1.99559,-3.865 2.81055,-5.45312 0.81496,-1.58813 1.51755,-2.88672 1.56055,-2.88672 z"
             style="fill:#00a5bb;fill-opacity:1"
             inkscape:connector-curvature="0" />
        </g>
        <g
           id="g4672"
           transform="translate(165.57834,0)">
          <g
             transform="translate(1.4285714,40.357143)"
             id="g4517">
            <path
               style="fill:url(#radialGradient4553);fill-opacity:1"
               d="m 166.95228,447.71729 c -0.45643,-0.0597 -1.46893,-0.32038 -2.25,-0.57926 -2.7597,-0.91468 -4.41641,-0.92051 -9.04571,-0.0318 -3.48049,0.66815 -3.33201,0.69235 -4.33354,-0.70646 -6.47325,-9.04103 -10.45495,-19.34594 -11.89716,-30.79065 -0.32496,-2.57873 -0.45686,-9.83707 -0.23054,-12.68571 1.20421,-15.15658 7.05332,-28.57929 17.39577,-39.92033 5.40369,-5.92544 13.22053,-11.61822 20.55933,-14.97278 6.76767,-3.09349 13.03456,-4.83597 20.85671,-5.79911 2.14193,-0.26374 11.95807,-0.26374 14.1,0 4.85817,0.59819 9.15865,1.5162 13.22216,2.8225 16.85906,5.41971 30.85064,17.40735 38.75997,33.20857 3.54796,7.0881 5.5903,13.93827 6.61927,22.2015 0.38374,3.08168 0.38734,11.7139 0.006,14.8485 -1.37237,11.28636 -5.21412,21.47276 -11.48594,30.455 l -1.25336,1.79501 -0.73816,0 c -0.40599,0 -1.76573,-0.20159 -3.02164,-0.44797 -4.56185,-0.89493 -6.53478,-0.89568 -8.95472,-0.003 -2.79836,1.03179 -5.52444,0.86159 -7.45303,-0.46531 -0.99777,-0.68648 -2.24363,-1.0333 -3.71187,-1.0333 -1.43444,0 -2.50087,0.27553 -3.76386,0.97247 -1.33321,0.73569 -2.31913,0.97799 -3.96473,0.97436 -1.11424,-0.002 -1.65693,-0.0814 -2.42626,-0.35299 -1.64899,-0.58211 -2.13763,-0.98862 -4.34993,-3.61884 -2.11615,-2.51592 -3.96255,-2.229 -5.79163,0.89996 -0.55821,0.9549 -0.86848,1.0323 -1.08913,0.27169 -0.17091,-0.58915 -1.30158,-15.23842 -4.57667,-59.29666 -1.0395,-13.98375 -1.91915,-25.56542 -1.95479,-25.73704 -0.0525,-0.25262 -0.15116,-0.29936 -0.51833,-0.24547 l -0.45353,0.0666 0,-2.86702 c 0,-2.76703 -0.0105,-2.86703 -0.3,-2.86703 -0.28954,0 -0.3,0.1 -0.3,2.86703 l 0,2.86702 -0.44482,-0.0653 c -0.42106,-0.0618 -0.44913,-0.0327 -0.52563,0.54547 -0.0445,0.33592 -1.26509,16.50701 -2.71255,35.93576 -3.10033,41.61473 -3.61264,48.22382 -3.78475,48.82501 -0.20556,0.71802 -0.54673,0.63586 -1.05685,-0.25451 -0.94574,-1.65068 -2.17873,-2.67049 -3.22873,-2.67049 -0.68829,0 -1.52182,0.54182 -2.44258,1.58777 -2.5466,2.89283 -3.15191,3.37685 -4.84381,3.87321 -0.92426,0.27115 -3.03066,0.31202 -4.06028,0.0788 -0.37125,-0.0841 -1.215,-0.42912 -1.875,-0.76672 -1.56615,-0.80109 -2.4229,-1.02015 -3.975,-1.01636 -1.49705,0.004 -2.35011,0.25945 -3.84052,1.15154 -1.46958,0.87964 -3.04057,1.18543 -4.86434,0.94684 z"
               id="path4427"
               inkscape:connector-curvature="0" />
            <path
               inkscape:transform-center-y="-0.70087906"
               inkscape:transform-center-x="0.0071803592"
               d="m 235.31455,373.61221 -4.36571,-3.01766 -4.3467,3.04498 1.52088,-5.08455 -4.23914,-3.19301 5.30566,-0.12476 1.72677,-5.01836 1.7582,5.00743 5.30634,0.0915 -4.21904,3.21953 z"
               inkscape:randomized="0"
               inkscape:rounded="0"
               inkscape:flatsided="false"
               sodipodi:arg2="1.5676609"
               sodipodi:arg1="0.93934237"
               sodipodi:r2="2.9645019"
               sodipodi:r1="7.4112544"
               sodipodi:cy="367.63007"
               sodipodi:cx="230.93954"
               sodipodi:sides="5"
               id="path4988"
               style="opacity:1;fill:#ffffff;fill-opacity:1;stroke:none;stroke-width:0.5;stroke-miterlimit:4;stroke-dasharray:none;stroke-opacity:1;filter:url(#filter4990)"
               sodipodi:type="star" />
            <path
               style="fill:url(#radialGradient4573);fill-opacity:1"
               d="m 155.71163,451.87474 c -0.83059,-0.92813 -1.49133,-1.78752 -1.46831,-1.90975 0.0771,-0.40953 3.89304,-1.0688 6.33882,-1.09516 2.08832,-0.0225 2.10918,-0.0193 3.75,0.56605 1.62151,0.57851 1.68625,0.58866 3.75,0.58801 2.38236,-7.5e-4 3.0929,-0.18489 4.87989,-1.26461 1.92209,-1.16134 3.51855,-1.14124 5.93302,0.0747 3.48969,1.75744 7.2443,1.44802 10.34333,-0.85241 0.49844,-0.36999 1.42792,-1.3213 2.06551,-2.11403 0.6376,-0.79273 1.22602,-1.48258 1.3076,-1.533 0.26356,-0.16289 0.66294,0.0654 0.98838,0.56496 0.17476,0.26825 0.57592,0.88561 0.89148,1.37191 1.3487,2.07845 3.27678,2.29495 4.33635,0.48691 0.80899,-1.38042 0.55318,1.4136 3.60085,-39.33032 0.95073,-12.71007 1.72859,-23.25694 1.72859,-23.4375 0,-0.1918 0.0935,-0.32828 0.225,-0.32828 0.19936,0 0.225,3.98334 0.225,34.95 l 0,34.95001 -23.69267,0 -23.69267,0 -1.51017,-1.6875 z"
               id="path4439"
               inkscape:connector-curvature="0" />
            <path
               style="fill:#000000"
               d="m 204.413,384.22473 c -0.0358,-0.18562 -0.065,-0.0337 -0.065,0.3375 0,0.37125 0.0293,0.52313 0.065,0.3375 0.0358,-0.18562 0.0358,-0.48937 0,-0.675 z"
               id="path4435"
               inkscape:connector-curvature="0" />
            <path
               style="fill:#000000"
               d="m 205.46478,384.0018 c -0.0345,-0.22801 -0.0636,-0.0771 -0.0647,0.33543 -0.001,0.4125 0.0271,0.59906 0.0627,0.41457 0.0356,-0.1845 0.0365,-0.522 0.002,-0.75 z"
               id="path4429"
               inkscape:connector-curvature="0" />
            <path
               inkscape:transform-center-x="-1.2237286e-05"
               sodipodi:type="star"
               style="opacity:1;fill:#ffffff;fill-opacity:1;stroke:none;stroke-width:0.5;stroke-miterlimit:4;stroke-dasharray:none;stroke-opacity:1"
               id="path5006"
               sodipodi:sides="5"
               sodipodi:cx="224.70187"
               sodipodi:cy="427.31796"
               sodipodi:r1="11.226988"
               sodipodi:r2="4.4907951"
               sodipodi:arg1="-1.5707963"
               sodipodi:arg2="-0.9424778"
               inkscape:flatsided="false"
               inkscape:rounded="0"
               inkscape:randomized="0"
               d="m 224.70187,416.09097 2.63963,7.59386 8.03787,0.1638 -6.4065,4.85706 2.32806,7.6951 -6.59906,-4.59203 -6.59905,4.59203 2.32805,-7.6951 -6.4065,-4.85706 8.03788,-0.1638 z"
               inkscape:transform-center-y="-1.0721238" />
            <path
               transform="matrix(0.91441587,0,0,0.91860466,15.323234,31.844225)"
               sodipodi:type="star"
               style="opacity:1;fill:#ffffff;fill-opacity:1;stroke:none;stroke-width:0.5;stroke-miterlimit:4;stroke-dasharray:none;stroke-opacity:1"
               id="path5004"
               sodipodi:sides="5"
               sodipodi:cx="179.04294"
               sodipodi:cy="391.22906"
               sodipodi:r1="10.85914"
               sodipodi:r2="4.3436561"
               sodipodi:arg1="-1.5707963"
               sodipodi:arg2="-0.9424778"
               inkscape:flatsided="false"
               inkscape:rounded="0"
               inkscape:randomized="0"
               d="m 179.04294,380.36992 2.55314,7.34505 7.77451,0.15844 -6.19659,4.69792 2.25178,7.44296 -6.38284,-4.44157 -6.38284,4.44157 2.25178,-7.44296 -6.1966,-4.69792 7.77452,-0.15844 z"
               inkscape:transform-center-y="-0.95255001" />
            <path
               transform="matrix(0.69386646,0,0,0.67209458,59.528275,113.46654)"
               inkscape:transform-center-y="-0.72419312"
               inkscape:transform-center-x="0.066941495"
               d="m 202.248,367.61676 -7.32499,-4.82481 -7.0696,5.19183 2.32512,-8.45743 -7.12235,-5.11922 8.762,-0.40217 2.66774,-8.35569 3.09009,8.20888 8.77111,-0.0449 -6.85222,5.47553 z"
               inkscape:randomized="0"
               inkscape:rounded="0"
               inkscape:flatsided="false"
               sodipodi:arg2="1.5453048"
               sodipodi:arg1="0.9169863"
               sodipodi:r2="4.8995004"
               sodipodi:r1="12.24875"
               sodipodi:cy="357.89404"
               sodipodi:cx="194.79813"
               sodipodi:sides="5"
               id="path4994"
               style="opacity:1;fill:#ffffff;fill-opacity:1;stroke:none;stroke-width:0.5;stroke-miterlimit:4;stroke-dasharray:none;stroke-opacity:1"
               sodipodi:type="star" />
            <path
               inkscape:connector-curvature="0"
               id="path4665"
               d="m 254.06683,451.87474 c 0.83059,-0.92813 1.49133,-1.78752 1.46831,-1.90975 -0.0771,-0.40953 -3.89304,-1.0688 -6.33882,-1.09516 -2.08832,-0.0225 -2.10918,-0.0193 -3.75,0.56605 -1.62151,0.57851 -1.68625,0.58866 -3.75,0.58801 -2.38236,-7.5e-4 -3.0929,-0.18489 -4.87989,-1.26461 -1.92209,-1.16134 -3.51855,-1.14124 -5.93302,0.0747 -3.48969,1.75744 -7.2443,1.44802 -10.34333,-0.85241 -0.49844,-0.36999 -1.42792,-1.3213 -2.06551,-2.11403 -0.6376,-0.79273 -1.22602,-1.48258 -1.3076,-1.533 -0.26356,-0.16289 -0.66294,0.0654 -0.98838,0.56496 -0.17476,0.26825 -0.57592,0.88561 -0.89148,1.37191 -1.3487,2.07845 -3.27678,2.29495 -4.33635,0.48691 -0.80899,-1.38042 -0.55318,1.4136 -3.60085,-39.33032 -0.95073,-12.71007 -1.72859,-23.25694 -1.72859,-23.4375 0,-0.1918 -0.0935,-0.32828 -0.225,-0.32828 -0.19936,0 -0.225,3.98334 -0.225,34.95 l 0,34.95001 23.69267,0 23.69267,0 1.51017,-1.6875 z"
               style="fill:url(#radialGradient4667);fill-opacity:1" />
          </g>
          <path
             inkscape:connector-curvature="0"
             style="opacity:1;fill:url(#radialGradient4740);fill-opacity:1;stroke:#faffff;stroke-width:0.57431036;stroke-miterlimit:4;stroke-dasharray:none;stroke-opacity:1"
             d="m 158.87088,494.14872 a 65.622757,66.632912 0 0 0 3.73047,3.75 l 87.7207,0 a 65.622757,66.632912 0 0 0 3.74609,-3.75 l -95.19726,0 z"
             id="path4705" />
          <path
             inkscape:connector-curvature="0"
             id="path4785"
             d="m 206.4704,446.57649 0,56.42857"
             style="fill:none;fill-rule:evenodd;stroke:#ffffff;stroke-width:0.5;stroke-linecap:butt;stroke-linejoin:miter;stroke-miterlimit:4;stroke-dasharray:none;stroke-opacity:1" />
        </g>
      </g>
    </g>
  </g>
</svg>
